<svg id="instagram-fill" xmlns="http://www.w3.org/2000/svg" width="24" height="24" viewBox="0 0 24 24">
  <defs>
    <style>
      .cls-1 {
        fill: none;
      }

      .cls-2 {
        fill: #ff6400;
      }
    </style>
  </defs>
  <path id="Path_233" data-name="Path 233" class="cls-1" d="M0,0H24V24H0Z"/>
  <path id="Path_234" data-name="Path 234" class="cls-2" d="M12,2c2.717,0,3.056.01,4.122.06a7.367,7.367,0,0,1,2.428.465,4.876,4.876,0,0,1,1.772,1.153A4.908,4.908,0,0,1,21.475,5.45a7.387,7.387,0,0,1,.465,2.428C21.987,8.944,22,9.283,22,12s-.01,3.056-.06,4.122a7.393,7.393,0,0,1-.465,2.428,5.106,5.106,0,0,1-2.925,2.925,7.387,7.387,0,0,1-2.428.465c-1.066.047-1.4.06-4.122.06s-3.056-.01-4.122-.06a7.393,7.393,0,0,1-2.428-.465A5.106,5.106,0,0,1,2.525,18.55a7.361,7.361,0,0,1-.465-2.428C2.013,15.056,2,14.717,2,12s.01-3.056.06-4.122A7.361,7.361,0,0,1,2.525,5.45,4.88,4.88,0,0,1,3.678,3.678,4.9,4.9,0,0,1,5.45,2.525,7.361,7.361,0,0,1,7.878,2.06C8.944,2.013,9.283,2,12,2Zm0,5a5,5,0,1,0,5,5A5,5,0,0,0,12,7Zm6.5-.25A1.25,1.25,0,1,0,17.25,8,1.25,1.25,0,0,0,18.5,6.75ZM12,9a3,3,0,1,1-3,3A3,3,0,0,1,12,9Z"/>
</svg>
