<svg xmlns="http://www.w3.org/2000/svg" xmlns:xlink="http://www.w3.org/1999/xlink" width="130.357" height="30" viewBox="0 0 130.357 30">
  <defs>
    <style>
      .cls-1 {
        fill: url(#linear-gradient);
      }

      .cls-2 {
        fill: url(#linear-gradient-2);
      }

      .cls-3 {
        fill: url(#linear-gradient-3);
      }

      .cls-4 {
        fill: url(#linear-gradient-4);
      }
    </style>
    <linearGradient id="linear-gradient" x1="0.5" x2="0.5" y2="1" gradientUnits="objectBoundingBox">
      <stop offset="0" stop-color="#b6adf5"/>
      <stop offset="1" stop-color="#7969e6"/>
    </linearGradient>
    <linearGradient id="linear-gradient-2" x1="0.5" x2="0.5" y2="1" gradientUnits="objectBoundingBox">
      <stop offset="0" stop-color="#76ce44"/>
      <stop offset="1" stop-color="#b3eb93"/>
    </linearGradient>
    <linearGradient id="linear-gradient-3" x1="0.5" x2="0.5" y2="1" gradientUnits="objectBoundingBox">
      <stop offset="0" stop-color="#fed056"/>
      <stop offset="1" stop-color="#ffe5a1"/>
    </linearGradient>
    <linearGradient id="linear-gradient-4" x1="0.5" x2="0.5" y2="1" gradientUnits="objectBoundingBox">
      <stop offset="0" stop-color="#fb5e93"/>
      <stop offset="1" stop-color="#ffa8c5"/>
    </linearGradient>
  </defs>
  <g id="Logo" transform="translate(-76.36 -56)">
    <path id="Path_1" data-name="Path 1" class="cls-1" d="M64.113,157.215a1.8,1.8,0,0,0,.088-1.757c-1.27-2.615-3.74-4.458-7.646-4.458a8.769,8.769,0,0,0-8.775,8.789l0,.827a51.423,51.423,0,0,0,.883,10.822.879.879,0,0,0,.863.714h9.668a.878.878,0,0,0,.879-.879v-.948a4.4,4.4,0,0,1,1.031-2.761,7.894,7.894,0,0,0,4.005-5.889,1.733,1.733,0,0,0-1.76-1.886,1.7,1.7,0,0,0-1.727,1.437l0-.033a5.269,5.269,0,1,1-.579-4.152l-.01-.072a1.75,1.75,0,0,0,3.087.247Zm0,0" transform="translate(44.232 -86.152)"/>
    <path id="Path_2" data-name="Path 2" class="cls-2" d="M.035,1.71.012,2.43A42.657,42.657,0,0,0,1.53,14.48a10.431,10.431,0,0,1,.532-1.331A33.961,33.961,0,0,1,3.624,5.4a24.648,24.648,0,0,1-.1-2.873l.022-.718a1.758,1.758,0,1,0-3.514-.1Zm0,0" transform="translate(89.206 56)"/>
    <path id="Path_3" data-name="Path 3" class="cls-3" d="M77.846.29a1.786,1.786,0,0,0-2.36.786l-.371.742a31.36,31.36,0,0,0-2.761,8.373,10.593,10.593,0,0,1,2.7-1.893c.512-.652,1.043-1.3,1.6-1.935.213-.24.435-.446.651-.677a22.937,22.937,0,0,1,.952-2.3l.371-.742A1.756,1.756,0,0,0,77.846.29Zm0,0" transform="translate(21.09 55.897)"/>
    <path id="Path_4" data-name="Path 4" class="cls-4" d="M176.438,53.731c.374-.331.726-.687,1.117-1l.65-.516a1.759,1.759,0,0,0,.283-2.47,1.8,1.8,0,0,0-2.47-.283l-.65.516a30.646,30.646,0,0,0-3.63,3.453,10.5,10.5,0,0,1,1.517-.122A11.978,11.978,0,0,1,176.438,53.731Zm0,0" transform="translate(-72.469 9.778)"/>
    <path id="Path_5" data-name="Path 5" d="M10.775-95.3A6.029,6.029,0,0,1,7.04-96.712v4.728a1.185,1.185,0,0,1-.364.852,1.15,1.15,0,0,1-.848.372,1.192,1.192,0,0,1-.836-.324,1.076,1.076,0,0,1-.352-.828v-9.6a6.055,6.055,0,0,1,1.8-4.416,5.853,5.853,0,0,1,4.32-1.824,5.881,5.881,0,0,1,4.344,1.824,6.055,6.055,0,0,1,1.8,4.416,6.035,6.035,0,0,1-1.8,4.392A5.859,5.859,0,0,1,10.775-95.3Zm.021-10.08a3.569,3.569,0,0,0-2.656,1.132,3.762,3.762,0,0,0-1.1,2.72,3.762,3.762,0,0,0,1.1,2.72A3.569,3.569,0,0,0,10.8-97.672a3.6,3.6,0,0,0,2.68-1.132,3.762,3.762,0,0,0,1.1-2.72,3.762,3.762,0,0,0-1.1-2.72A3.6,3.6,0,0,0,10.8-105.376Zm14.532-2.256v.024a1.055,1.055,0,0,1,.84,1.068,1.054,1.054,0,0,1-.3.752.972.972,0,0,1-.732.316H23.7a3.648,3.648,0,0,0-2.7,1.134A3.758,3.758,0,0,0,19.88-101.6v4.9a.943.943,0,0,1-.324.74,1.075,1.075,0,0,1-.732.287,1.017,1.017,0,0,1-.732-.288.957.957,0,0,1-.3-.72v-4.944a6,6,0,0,1,1.632-4.2,5.31,5.31,0,0,1,4.008-1.8h1.9ZM33.44-95.488a5.892,5.892,0,0,1-4.32-1.8,5.892,5.892,0,0,1-1.8-4.32,5.919,5.919,0,0,1,1.8-4.344,5.892,5.892,0,0,1,4.32-1.8,5.919,5.919,0,0,1,4.344,1.8,5.919,5.919,0,0,1,1.8,4.344,5.892,5.892,0,0,1-1.8,4.32A5.919,5.919,0,0,1,33.44-95.488Zm.036-9.888a3.619,3.619,0,0,0-2.656,1.1,3.619,3.619,0,0,0-1.1,2.656,3.619,3.619,0,0,0,1.1,2.656,3.619,3.619,0,0,0,2.656,1.1,3.647,3.647,0,0,0,2.68-1.1,3.619,3.619,0,0,0,1.1-2.656,3.619,3.619,0,0,0-1.1-2.656A3.647,3.647,0,0,0,33.476-105.376ZM46.9-95.512a5.839,5.839,0,0,1-4.32-1.833,6.054,6.054,0,0,1-1.8-4.4v-9.611a1.047,1.047,0,0,1,.352-.8,1.193,1.193,0,0,1,.836-.324,1.171,1.171,0,0,1,.848.358,1.139,1.139,0,0,1,.364.837v4.733a6.029,6.029,0,0,1,3.735-1.416,5.859,5.859,0,0,1,4.333,1.824,6.035,6.035,0,0,1,1.8,4.392,6.067,6.067,0,0,1-1.8,4.4A5.862,5.862,0,0,1,46.9-95.512Zm.036-10.08a3.583,3.583,0,0,0-2.656,1.123,3.74,3.74,0,0,0-1.1,2.717,3.768,3.768,0,0,0,1.1,2.741,3.583,3.583,0,0,0,2.656,1.123,3.61,3.61,0,0,0,2.68-1.123,3.768,3.768,0,0,0,1.1-2.741,3.74,3.74,0,0,0-1.1-2.717A3.61,3.61,0,0,0,46.94-105.592Zm8.46,10.08a1.382,1.382,0,0,1-.876-.407,1.123,1.123,0,0,1-.468-.815v-14.619a.973.973,0,0,1,.48-.779,1.551,1.551,0,0,1,.888-.347,1.447,1.447,0,0,1,.888.4,1.083,1.083,0,0,1,.48.8v14.619a.989.989,0,0,1-.48.8A1.576,1.576,0,0,1,55.4-95.512Zm5.184-4.848A3.89,3.89,0,0,0,62-98.53a3.664,3.664,0,0,0,2.136.666H65.6a1.251,1.251,0,0,1,.828.356,1.1,1.1,0,0,1,.348.832,1.04,1.04,0,0,1-.912,1.093,9.618,9.618,0,0,1-1.752.095,5.892,5.892,0,0,1-4.32-1.8,5.892,5.892,0,0,1-1.8-4.32,5.919,5.919,0,0,1,1.8-4.344,5.892,5.892,0,0,1,4.32-1.8,6.035,6.035,0,0,1,3.42,1.032,6.035,6.035,0,0,1,2.268,2.76,5.989,5.989,0,0,1,.408,1.776v1.824Zm3.552-5.016a3.6,3.6,0,0,0-2.172.708,4.087,4.087,0,0,0-1.428,1.932H67.5A3.366,3.366,0,0,0,64.136-105.376ZM92.492-95.344a1.2,1.2,0,0,1-.832-.324,1.043,1.043,0,0,1-.356-.8v-4.776a3.606,3.606,0,0,0-1.136-2.688,3.79,3.79,0,0,0-2.74-1.1,3.832,3.832,0,0,0-2.165.66,3.693,3.693,0,0,0-1.424,1.74,2.778,2.778,0,0,0-.215.816v5.136a1.364,1.364,0,0,1-.372.924,1.16,1.16,0,0,1-.9.42,1.249,1.249,0,0,1-.864-.323,1.06,1.06,0,0,1-.36-.826v-5.363a2.822,2.822,0,0,0-.19-.814,3.716,3.716,0,0,0-1.415-1.8,3.827,3.827,0,0,0-2.2-.67,3.719,3.719,0,0,0-2.71,1.1,3.6,3.6,0,0,0-1.118,2.657v4.692a1.129,1.129,0,0,1-.372.838,1.22,1.22,0,0,1-.876.359,1.216,1.216,0,0,1-.84-.324,1.038,1.038,0,0,1-.36-.8v-4.8a5.811,5.811,0,0,1,1.826-4.308,6.086,6.086,0,0,1,4.421-1.788,6.22,6.22,0,0,1,5.117,2.544,6.167,6.167,0,0,1,4.973-2.4,6.175,6.175,0,0,1,4.469,1.8,5.814,5.814,0,0,1,1.85,4.32v4.7a1.059,1.059,0,0,1-.344.84A1.2,1.2,0,0,1,92.492-95.344Z" transform="translate(113.012 175.008)"/>
    <path id="Path_6" data-name="Path 6" d="M14.412-67.336a1.194,1.194,0,0,1-.836-.323,1.046,1.046,0,0,1-.352-.8v-4.764a3.64,3.64,0,0,0-1.09-2.657,3.593,3.593,0,0,0-2.654-1.1,3.566,3.566,0,0,0-2.63,1.1,3.64,3.64,0,0,0-1.09,2.657v4.668A1.168,1.168,0,0,1,5.4-67.7a1.17,1.17,0,0,1-.848.359,1.206,1.206,0,0,1-.824-.324,1.06,1.06,0,0,1-.364-.828v-4.776a5.886,5.886,0,0,1,1.78-4.308A5.878,5.878,0,0,1,9.468-79.36a5.909,5.909,0,0,1,4.328,1.8,5.886,5.886,0,0,1,1.8,4.32q0-.024.024,4.7a1.146,1.146,0,0,1-.364.84A1.168,1.168,0,0,1,14.412-67.336Z" transform="translate(73 146.856)"/>
  </g>
</svg>
