<svg xmlns="http://www.w3.org/2000/svg" xmlns:xlink="http://www.w3.org/1999/xlink" width="97.659" height="97.658" viewBox="0 0 97.659 97.658">
  <defs>
    <style>
      .cls-1 {
        fill: #fff;
      }

      .cls-2 {
        fill: #ff6400;
      }

      .cls-3 {
        filter: url(#Path_206);
      }
    </style>
    <filter id="Path_206" x="0" y="0" width="97.659" height="97.658" filterUnits="userSpaceOnUse">
      <feOffset dy="3" input="SourceAlpha"/>
      <feGaussianBlur stdDeviation="3" result="blur"/>
      <feFlood flood-opacity="0.161"/>
      <feComposite operator="in" in2="blur"/>
      <feComposite in="SourceGraphic"/>
    </filter>
  </defs>
  <g id="Group_329" data-name="Group 329" transform="translate(-53 -95)">
    <g class="cls-3" transform="matrix(1, 0, 0, 1, 53, 95)">
      <path id="Path_206-2" data-name="Path 206" class="cls-1" d="M5773.658-2111.341h0a40.121,40.121,0,0,1-7.854-.809,39.584,39.584,0,0,1-7.476-2.321,39.756,39.756,0,0,1-6.766-3.673,40.065,40.065,0,0,1-5.9-4.863,40.05,40.05,0,0,1-4.863-5.895,39.753,39.753,0,0,1-3.672-6.766,39.684,39.684,0,0,1-2.321-7.476,40.113,40.113,0,0,1-.809-8.027,40.12,40.12,0,0,1,.809-8.027,39.675,39.675,0,0,1,2.321-7.477,39.781,39.781,0,0,1,3.672-6.766,40.06,40.06,0,0,1,4.863-5.895,40.029,40.029,0,0,1,5.9-4.863,39.757,39.757,0,0,1,6.766-3.673,39.557,39.557,0,0,1,7.476-2.32,40.1,40.1,0,0,1,8.028-.809,40.111,40.111,0,0,1,8.026.809,39.61,39.61,0,0,1,7.477,2.32,39.818,39.818,0,0,1,6.766,3.673,40.171,40.171,0,0,1,5.895,4.863,40.075,40.075,0,0,1,4.863,5.895,39.806,39.806,0,0,1,3.672,6.766,39.569,39.569,0,0,1,2.321,7.477,40.186,40.186,0,0,1,.809,8.027,40.185,40.185,0,0,1-.809,8.027,39.581,39.581,0,0,1-2.066,6.856l-12.2-7a25.882,25.882,0,0,0,1.224-7.885,26,26,0,0,0-25.975-25.976,26.005,26.005,0,0,0-25.976,25.976,26.039,26.039,0,0,0,25.8,25.975Z" transform="translate(-5725 2197)"/>
    </g>
    <path id="Path_205" data-name="Path 205" class="cls-2" d="M13.722.887a1.732,1.732,0,0,1,3.023,0l13.5,24.158a1.732,1.732,0,0,1-1.512,2.576h-27A1.732,1.732,0,0,1,.223,25.044Z" transform="translate(137.936 150.532) rotate(90)"/>
  </g>
</svg>
