<svg xmlns="http://www.w3.org/2000/svg" width="189.421" height="40" viewBox="0 0 189.421 40">
  <defs>
    <style>
      .cls-1 {
        fill: #fff;
      }

      .cls-2 {
        fill: #ff6400;
      }
    </style>
  </defs>
  <g id="Group_291" data-name="Group 291" transform="translate(-62 -101)">
    <path id="Path_108" data-name="Path 108" class="cls-1" d="M16.607-138.743c-2.468,0-4.085-1.183-4.085-3.042,0-1.88,1.532-2.979,4.426-3.169l5.319-.338v1.754C22.267-140.729,19.82-138.743,16.607-138.743Zm-1.553,4.035a8.036,8.036,0,0,0,7.234-3.972h.128v3.718H27.5v-15.824c0-4.584-3.766-7.584-9.575-7.584-5.468,0-9.426,3.021-9.554,7.246h4.894c.362-1.859,2.085-3.106,4.49-3.106,2.851,0,4.511,1.331,4.511,3.782v1.69l-6.043.359c-5.851.359-9.022,2.7-9.022,6.824C7.2-137.476,10.479-134.708,15.054-134.708Zm18.163,8.155c5.213,0,7.7-1.923,9.681-7.606l8.426-23.894h-5.6L40.174-139.5h-.106l-5.575-18.549H28.727l8.319,23.176-.3,1.077a3.8,3.8,0,0,1-4.17,3.042,10.658,10.658,0,0,1-1.447-.085v4.183C31.45-126.6,32.9-126.553,33.216-126.553Zm19.46-8.408h5.3v-13.246c0-3.38,2.17-5.662,5.426-5.662,3.192,0,4.979,1.859,4.979,5.155v13.753h5.3V-149.75c0-5.345-3.149-8.577-8.3-8.577-3.575,0-6.128,1.479-7.511,4.289h-.106v-4.014H52.677Zm32.546-3.782c-2.468,0-4.085-1.183-4.085-3.042,0-1.88,1.532-2.979,4.426-3.169l5.319-.338v1.754C90.882-140.729,88.435-138.743,85.223-138.743Zm-1.553,4.035A8.036,8.036,0,0,0,90.9-138.68h.128v3.718h5.085v-15.824c0-4.584-3.766-7.584-9.575-7.584-5.468,0-9.426,3.021-9.554,7.246h4.894c.362-1.859,2.085-3.106,4.49-3.106,2.851,0,4.511,1.331,4.511,3.782v1.69l-6.043.359c-5.851.359-9.022,2.7-9.022,6.824C75.818-137.476,79.095-134.708,83.669-134.708Zm15.631-.254h5.3v-13.394c0-3.253,1.872-5.26,4.979-5.26a6.5,6.5,0,0,1,2.106.317v-4.8a6,6,0,0,0-1.617-.211,5.516,5.516,0,0,0-5.575,4.268h-.106v-4.014H99.3Zm15.4.232a3.009,3.009,0,0,0,3.043-3.042,3.009,3.009,0,0,0-3.043-3.042,3.014,3.014,0,0,0-3.064,3.042A3.014,3.014,0,0,0,114.7-134.729Zm6.354-28.479v5.155h-3.17v4.077h3.17v12.887c0,4.458,1.958,6.232,6.894,6.232a15.188,15.188,0,0,0,2.787-.211V-139.1a15.409,15.409,0,0,1-1.575.106c-1.915,0-2.809-.908-2.809-2.81v-12.169h4.4v-4.077h-4.4v-5.155Zm32.5,5.155h-5.532l-5.49,18.148h-.106l-5.511-18.148h-5.639l8.256,23.091h5.809Z" transform="translate(97.867 267.309)"/>
    <path id="Path_206" data-name="Path 206" class="cls-1" d="M5753.958-2151.171h0a20.334,20.334,0,0,1-3.953-.4,20,20,0,0,1-3.762-1.16,20.043,20.043,0,0,1-3.405-1.836,20.17,20.17,0,0,1-2.967-2.431,20.088,20.088,0,0,1-2.448-2.948,19.891,19.891,0,0,1-1.848-3.383,19.746,19.746,0,0,1-1.168-3.738,19.92,19.92,0,0,1-.407-4.013,19.918,19.918,0,0,1,.407-4.013,19.75,19.75,0,0,1,1.168-3.738,19.907,19.907,0,0,1,1.848-3.383,20.1,20.1,0,0,1,2.448-2.947,20.14,20.14,0,0,1,2.967-2.432,20.026,20.026,0,0,1,3.405-1.836,20.021,20.021,0,0,1,3.762-1.16,20.3,20.3,0,0,1,4.041-.4,20.3,20.3,0,0,1,4.04.4,20.036,20.036,0,0,1,3.762,1.16,20.1,20.1,0,0,1,3.405,1.836,20.149,20.149,0,0,1,2.966,2.432,20.113,20.113,0,0,1,2.448,2.947,19.862,19.862,0,0,1,1.848,3.383,19.685,19.685,0,0,1,1.168,3.738,19.883,19.883,0,0,1,.408,4.013,19.885,19.885,0,0,1-.408,4.013,19.737,19.737,0,0,1-1.038,3.427l-6.142-3.5a12.894,12.894,0,0,0,.615-3.943,13.045,13.045,0,0,0-13.073-12.987,13.045,13.045,0,0,0-13.073,12.987,13.061,13.061,0,0,0,12.985,12.987Z" transform="translate(-5672 2292)"/>
    <path id="Path_205" data-name="Path 205" class="cls-2" d="M6.906.446a.872.872,0,0,1,1.522,0L15.222,12.6a.872.872,0,0,1-.761,1.3H.873a.872.872,0,0,1-.761-1.3Z" transform="translate(100.216 125.666) rotate(90)"/>
  </g>
</svg>
