<svg id="messenger-fill" xmlns="http://www.w3.org/2000/svg" width="24" height="24" viewBox="0 0 24 24">
  <defs>
    <style>
      .cls-1 {
        fill: none;
      }

      .cls-2 {
        fill: #0080f8;
      }
    </style>
  </defs>
  <path id="Path_268" data-name="Path 268" class="cls-1" d="M0,0H24V24H0Z"/>
  <path id="Path_269" data-name="Path 269" class="cls-2" d="M12,2a9.7,9.7,0,1,1,0,19.4,10.894,10.894,0,0,1-2.895-.384.8.8,0,0,0-.534.039l-1.984.876a.8.8,0,0,1-1.123-.707l-.055-1.78a.8.8,0,0,0-.268-.57A9.482,9.482,0,0,1,2,11.7,9.651,9.651,0,0,1,12,2ZM5.995,14.537a.475.475,0,0,0,.689.631l3.155-2.394a.6.6,0,0,1,.723,0l2.337,1.75a1.5,1.5,0,0,0,2.169-.4L18,9.464a.476.476,0,0,0-.689-.633l-3.155,2.4a.6.6,0,0,1-.723,0L11.1,9.477a1.5,1.5,0,0,0-2.169.4L6,14.537Z"/>
</svg>
