<svg xmlns="http://www.w3.org/2000/svg" width="118.388" height="25" viewBox="0 0 118.388 25">
  <defs>
    <style>
      .cls-1 {
        fill: #cbcbcb;
      }
    </style>
  </defs>
  <g id="Group_362" data-name="Group 362" transform="translate(-62 -101)">
    <path id="Path_108" data-name="Path 108" class="cls-1" d="M13.08-147.918c-1.543,0-2.553-.739-2.553-1.9s.957-1.862,2.766-1.981l3.325-.211v1.1C16.617-149.159,15.088-147.918,13.08-147.918Zm-.971,2.522a5.023,5.023,0,0,0,4.521-2.482h.08v2.324h3.178v-9.89c0-2.865-2.354-4.74-5.984-4.74-3.418,0-5.891,1.888-5.971,4.529h3.059A2.61,2.61,0,0,1,13.8-157.6c1.782,0,2.819.832,2.819,2.364v1.056l-3.777.224c-3.657.224-5.639,1.69-5.639,4.265S9.25-145.4,12.109-145.4Zm11.352,5.1c3.258,0,4.814-1.2,6.051-4.753l5.266-14.934h-3.5l-3.471,11.593h-.066l-3.484-11.593h-3.6l5.2,14.485-.186.673a2.374,2.374,0,0,1-2.606,1.9,6.663,6.663,0,0,1-.9-.053v2.614C22.357-140.325,23.261-140.3,23.461-140.3Zm12.163-5.255h3.311v-8.279a3.281,3.281,0,0,1,3.391-3.539c1.995,0,3.112,1.162,3.112,3.222v8.6h3.311V-154.8c0-3.341-1.968-5.361-5.186-5.361a4.825,4.825,0,0,0-4.694,2.68H38.8v-2.509H35.624Zm20.341-2.364c-1.543,0-2.553-.739-2.553-1.9s.957-1.862,2.766-1.981l3.325-.211v1.1C59.5-149.159,57.973-147.918,55.965-147.918Zm-.971,2.522a5.023,5.023,0,0,0,4.521-2.482h.08v2.324h3.178v-9.89c0-2.865-2.354-4.74-5.984-4.74-3.418,0-5.891,1.888-5.971,4.529h3.059a2.61,2.61,0,0,1,2.806-1.941c1.782,0,2.819.832,2.819,2.364v1.056l-3.777.224c-3.657.224-5.639,1.69-5.639,4.265S52.135-145.4,54.994-145.4Zm9.769-.158h3.311v-8.371a2.958,2.958,0,0,1,3.112-3.288,4.06,4.06,0,0,1,1.317.2v-3a3.75,3.75,0,0,0-1.011-.132,3.447,3.447,0,0,0-3.484,2.667h-.066v-2.509H64.763Zm9.623.145a1.881,1.881,0,0,0,1.9-1.9,1.881,1.881,0,0,0-1.9-1.9,1.884,1.884,0,0,0-1.915,1.9A1.884,1.884,0,0,0,74.386-145.409Zm3.971-17.8v3.222H76.376v2.548h1.981v8.054c0,2.786,1.223,3.9,4.309,3.9a9.492,9.492,0,0,0,1.742-.132v-2.522a9.627,9.627,0,0,1-.984.066,1.535,1.535,0,0,1-1.755-1.756v-7.606h2.753v-2.548H81.668v-3.222Zm20.315,3.222H95.214l-3.431,11.342h-.066l-3.444-11.342H84.748l5.16,14.432h3.63Z" transform="translate(81.716 266.146)"/>
    <path id="Path_206" data-name="Path 206" class="cls-1" d="M5746.473-2166.107h0a12.7,12.7,0,0,1-2.471-.253,12.5,12.5,0,0,1-2.351-.725,12.541,12.541,0,0,1-2.128-1.148,12.61,12.61,0,0,1-1.854-1.52,12.538,12.538,0,0,1-1.53-1.842,12.405,12.405,0,0,1-1.155-2.114,12.369,12.369,0,0,1-.73-2.336,12.459,12.459,0,0,1-.254-2.509,12.455,12.455,0,0,1,.254-2.508,12.371,12.371,0,0,1,.73-2.336,12.405,12.405,0,0,1,1.155-2.114,12.562,12.562,0,0,1,1.53-1.842,12.6,12.6,0,0,1,1.854-1.52,12.523,12.523,0,0,1,2.128-1.147,12.5,12.5,0,0,1,2.351-.725,12.7,12.7,0,0,1,2.525-.253,12.686,12.686,0,0,1,2.525.253,12.512,12.512,0,0,1,2.352.725,12.563,12.563,0,0,1,2.128,1.147,12.572,12.572,0,0,1,1.854,1.52,12.588,12.588,0,0,1,1.53,1.842,12.437,12.437,0,0,1,1.155,2.114,12.3,12.3,0,0,1,.73,2.336,12.455,12.455,0,0,1,.254,2.508,12.459,12.459,0,0,1-.254,2.509,12.347,12.347,0,0,1-.649,2.142l-3.838-2.186a8.073,8.073,0,0,0,.384-2.465,8.153,8.153,0,0,0-8.17-8.117,8.153,8.153,0,0,0-8.17,8.117,8.163,8.163,0,0,0,8.116,8.117Z" transform="translate(-5672 2292)"/>
    <path id="Path_205" data-name="Path 205" class="cls-1" d="M4.316.279a.545.545,0,0,1,.951,0l4.246,7.6a.545.545,0,0,1-.475.81H.545a.545.545,0,0,1-.475-.81Z" transform="translate(85.885 116.416) rotate(90)"/>
  </g>
</svg>
