<svg id="code-box-fill" xmlns="http://www.w3.org/2000/svg" width="24" height="24" viewBox="0 0 24 24">
  <defs>
    <style>
      .cls-1 {
        fill: none;
      }

      .cls-2 {
        fill: #ff6400;
      }
    </style>
  </defs>
  <path id="Path_270" data-name="Path 270" class="cls-1" d="M0,0H24V24H0Z"/>
  <path id="Path_271" data-name="Path 271" class="cls-2" d="M3,3H21a1,1,0,0,1,1,1V20a1,1,0,0,1-1,1H3a1,1,0,0,1-1-1V4A1,1,0,0,1,3,3ZM16.464,15.536,20,12,16.464,8.464,15.05,9.88,17.172,12,15.05,14.121ZM6.828,12,8.95,9.879,7.536,8.464,4,12l3.536,3.536L8.95,14.12Zm4.416,5,3.64-10H12.756L9.116,17Z"/>
</svg>
