<svg id="facebook-box-fill" xmlns="http://www.w3.org/2000/svg" width="24" height="24" viewBox="0 0 24 24">
  <defs>
    <style>
      .cls-1 {
        fill: none;
      }

      .cls-2 {
        fill: #4267b2;
      }
    </style>
  </defs>
  <path id="Path_247" data-name="Path 247" class="cls-1" d="M0,0H24V24H0Z"/>
  <path id="Path_248" data-name="Path 248" class="cls-2" d="M15.4,21V14.034h2.333l.349-2.708H15.4V9.6c0-.784.218-1.319,1.342-1.319h1.434V5.857a19.191,19.191,0,0,0-2.09-.107,3.263,3.263,0,0,0-3.482,3.58v2H10.268v2.708h2.338V21H4a1,1,0,0,1-1-1V4A1,1,0,0,1,4,3H20a1,1,0,0,1,1,1V20a1,1,0,0,1-1,1Z"/>
</svg>
