<svg id="volume-mute-fill" xmlns="http://www.w3.org/2000/svg" width="22" height="22" viewBox="0 0 22 22">
  <defs>
    <style>
      .cls-1 {
        fill: none;
      }

      .cls-2 {
        fill: #fff;
      }
    </style>
  </defs>
  <path id="Path_217" data-name="Path 217" class="cls-1" d="M0,0H22V22H0Z"/>
  <path id="Path_218" data-name="Path 218" class="cls-2" d="M5.482,14.963H1.917A.917.917,0,0,1,1,14.046v-5.5a.917.917,0,0,1,.917-.917H5.482l4.853-3.971a.458.458,0,0,1,.749.355V18.579a.458.458,0,0,1-.749.355L5.483,14.963ZM18.8,11.3l3.241,3.241-1.3,1.3L17.5,12.592l-3.241,3.241-1.3-1.3L16.2,11.3,12.962,8.055l1.3-1.3L17.5,10l3.241-3.241,1.3,1.3Z" transform="translate(-0.083 -0.296)"/>
</svg>
