<svg id="slideshow-4-line" xmlns="http://www.w3.org/2000/svg" width="24" height="24" viewBox="0 0 24 24">
  <defs>
    <style>
      .cls-1 {
        fill: none;
      }

      .cls-2 {
        fill: #ff6400;
      }
    </style>
  </defs>
  <path id="Path_209" data-name="Path 209" class="cls-1" d="M0,0H24V24H0Z"/>
  <path id="Path_210" data-name="Path 210" class="cls-2" d="M8.17,3A3,3,0,0,1,11,1h2a3,3,0,0,1,2.83,2H21a1,1,0,0,1,1,1V20a1,1,0,0,1-1,1H3a1,1,0,0,1-1-1V4A1,1,0,0,1,3,3ZM4,5V19H20V5H15.83A3,3,0,0,1,13,7H11A3,3,0,0,1,8.17,5Zm7-2a1,1,0,0,0,0,2h2a1,1,0,0,0,0-2ZM10,9l5,3-5,3Z"/>
</svg>
